<?xml version="1.0" encoding="UTF-8" standalone="no"?>
<!-- Uploaded to: SVG Repo, www.svgrepo.com, Generator: SVG Repo Mixer Tools -->

<svg
   fill="#000000"
   width="800"
   height="800"
   viewBox="0 0 800 800"
   version="1.1"
   id="svg1"
   sodipodi:docname="edit2.svg"
   inkscape:version="1.4 (86a8ad7, 2024-10-11)"
   xmlns:inkscape="http://www.inkscape.org/namespaces/inkscape"
   xmlns:sodipodi="http://sodipodi.sourceforge.net/DTD/sodipodi-0.dtd"
   xmlns="http://www.w3.org/2000/svg"
   xmlns:svg="http://www.w3.org/2000/svg">
  <defs
     id="defs1" />
  <sodipodi:namedview
     id="namedview1"
     pagecolor="#ffffff"
     bordercolor="#000000"
     borderopacity="0.25"
     inkscape:showpageshadow="2"
     inkscape:pageopacity="0.0"
     inkscape:pagecheckerboard="0"
     inkscape:deskcolor="#d1d1d1"
     inkscape:zoom="0.729375"
     inkscape:cx="0.68551842"
     inkscape:cy="401.02828"
     inkscape:window-width="2560"
     inkscape:window-height="1369"
     inkscape:window-x="-8"
     inkscape:window-y="-8"
     inkscape:window-maximized="1"
     inkscape:current-layer="g3" />
  <g
     id="g3">
    <path
       style="stroke-width:1.0001"
       d="M 510.13539,534.16761 V 635.9875 h -320 V 315.92499 h 229.8 c 3.2,0 6.2,-1.30026 8.5,-3.50069 l 40,-40.00781 c 7.6,-7.60149 2.2,-20.50401 -8.5,-20.50401 h -285.8 c -26.5,0 -48,21.5042 -48,48.00938 v 352.06876 c 0,26.50518 21.5,48.00938 48,48.00938 h 352 c 26.5,0 48,-21.5042 48,-48.00938 V 494.1598 c 0,-10.70209 -12.9,-16.00313 -20.5,-8.50166 l -40,40.00781 c -2.2,2.30045 -3.5,5.30104 -3.5,8.50166 z"
       id="path3" />
    <g
       id="g4"
       transform="translate(50,-50)">
      <path
         style="stroke-width:1.0001"
         d="m 690.73539,248.21176 -48.8,-48.80953 c -15.2,-15.20297 -39.9,-15.20297 -55.2,0 l -35.4,35.40691 c -3.8,3.80074 -3.8,10.00196 0,13.8027 l 90.2,90.21762 c 3.8,3.80074 10,3.80074 13.8,0 l 35.4,-35.40692 c 15.2,-15.30299 15.2,-40.00781 0,-55.21078 z"
         id="path2" />
      <path
         style="stroke-width:1.0001"
         d="m 528.73539,271.11623 90.2,90.21762 c 3.8,3.80075 3.8,10.00196 0,13.8027 l -218.4,218.44266 -92.8,10.30202 c -12.4,1.40027 -22.9,-9.10178 -21.5,-21.5042 l 10.3,-92.81813 218.4,-218.44267 c 3.8,-3.80074 10,-3.80074 13.8,0 z"
         id="path1" />
    </g>
  </g>
</svg>
